<svg id="visual" viewBox="0 0 900 450" width="900" height="450" xmlns="http://www.w3.org/2000/svg" xmlns:xlink="http://www.w3.org/1999/xlink" version="1.1"><rect x="0" y="0" width="900" height="450" fill="#E6F6FF"></rect><path d="M0 296L37.5 289.5C75 283 150 270 225 251.8C300 233.7 375 210.3 450 212.7C525 215 600 243 675 257.3C750 271.7 825 272.3 862.5 272.7L900 273L900 451L862.5 451C825 451 750 451 675 451C600 451 525 451 450 451C375 451 300 451 225 451C150 451 75 451 37.5 451L0 451Z" fill="#fff" stroke-linecap="round" stroke-linejoin="miter"></path></svg>